<?xml version="1.0" encoding="UTF-8"?>
<!DOCTYPE svg PUBLIC "-//W3C//DTD SVG 1.1//EN" "http://www.w3.org/Graphics/SVG/1.1/DTD/svg11.dtd">
<svg xmlns="http://www.w3.org/2000/svg" version="1.1" width="640px" height="276px" style="shape-rendering:geometricPrecision; text-rendering:geometricPrecision; image-rendering:optimizeQuality; fill-rule:evenodd; clip-rule:evenodd" xmlns:xlink="http://www.w3.org/1999/xlink">
<g><path style="opacity:0.995" fill="#f9f9fa" d="M 252.5,-0.5 C 253.167,-0.5 253.833,-0.5 254.5,-0.5C 254.5,6.5 254.5,13.5 254.5,20.5C 249.5,21.5 247.5,19.5 248.5,14.5C 241.405,15.0962 234.071,15.4296 226.5,15.5C 229.098,49.0949 231.431,82.4283 233.5,115.5C 234.833,115.5 236.167,115.5 237.5,115.5C 237.357,117.262 237.691,118.929 238.5,120.5C 235.973,121.214 233.473,121.88 231,122.5C 230.439,121.978 229.772,121.645 229,121.5C 222.858,122.359 216.692,123.026 210.5,123.5C 210.739,121.533 210.406,119.699 209.5,118C 210.563,116.812 211.897,116.312 213.5,116.5C 212.005,83.0156 210.672,49.3489 209.5,15.5C 204.985,15.6543 200.652,15.6543 196.5,15.5C 192.033,16.6575 187.7,17.9909 183.5,19.5C 183.481,13.9837 183.315,8.31704 183,2.5C 187.152,0.508128 188.985,1.84146 188.5,6.5C 208.423,5.17422 228.423,4.50755 248.5,4.5C 248.5,3.16667 248.5,1.83333 248.5,0.5C 250.099,0.767809 251.432,0.434475 252.5,-0.5 Z"/></g>
<g><path style="opacity:0.998" fill="#f9f9fa" d="M 417.5,8.5 C 419.379,9.34141 421.379,9.67474 423.5,9.5C 423.5,10.8333 423.5,12.1667 423.5,13.5C 443.027,15.346 462.361,16.5127 481.5,17C 482.211,15.7453 483.044,14.5786 484,13.5C 485.645,13.6932 487.479,13.8598 489.5,14C 488.687,20.4191 488.187,26.9191 488,33.5C 485.919,34.3331 483.752,34.3331 481.5,33.5C 481.5,31.5 481.5,29.5 481.5,27.5C 475.298,27.7269 469.131,27.3936 463,26.5C 461.674,26.7549 460.674,27.4216 460,28.5C 458.495,61.6759 457.662,94.6759 457.5,127.5C 458.5,127.5 459.5,127.5 460.5,127.5C 460.357,129.262 460.691,130.929 461.5,132.5C 460,132.833 458.5,133.167 457,133.5C 448.855,132.651 440.689,132.318 432.5,132.5C 434.921,127.334 436.421,121.668 437,115.5C 438.991,85.1716 440.824,54.8383 442.5,24.5C 436.459,24.7474 430.459,24.4141 424.5,23.5C 422.117,25.2938 419.451,26.2938 416.5,26.5C 416.966,20.509 417.299,14.509 417.5,8.5 Z"/></g>
<g><path style="opacity:0.996" fill="#fafafa" d="M 312.5,9.5 C 319.86,9.55776 327.194,10.0578 334.5,11C 333.62,12.3561 333.286,13.8561 333.5,15.5C 332.5,15.5 331.5,15.5 330.5,15.5C 330.5,49.1667 330.5,82.8333 330.5,116.5C 335.275,116.789 335.775,118.455 332,121.5C 324.323,119.449 316.49,117.949 308.5,117C 307.862,115.293 307.862,113.46 308.5,111.5C 309.5,111.5 310.5,111.5 311.5,111.5C 311.695,102.775 312.361,94.1083 313.5,85.5C 313.705,80.3082 313.372,74.9748 312.5,69.5C 302.887,70.4743 293.22,70.8076 283.5,70.5C 283.5,83.8333 283.5,97.1667 283.5,110.5C 284.833,110.5 286.167,110.5 287.5,110.5C 287.863,112.911 286.863,114.411 284.5,115C 276.986,116.595 269.486,118.095 262,119.5C 259.533,116.006 260.366,114.006 264.5,113.5C 265.417,83.982 266.751,54.482 268.5,25C 267.41,21.1524 266.41,17.3191 265.5,13.5C 272.941,13.4934 280.274,14.3267 287.5,16C 286.663,17.0113 286.33,18.1779 286.5,19.5C 285.5,19.5 284.5,19.5 283.5,19.5C 284.283,33.4259 284.616,47.7592 284.5,62.5C 294.148,63.2451 303.815,63.5784 313.5,63.5C 313.529,51.6594 313.863,39.826 314.5,28C 314.167,23.8333 313.833,19.6667 313.5,15.5C 311.261,13.8669 310.928,11.8669 312.5,9.5 Z"/></g>
<g><path style="opacity:0.995" fill="#fafafa" d="M 397.5,17.5 C 399.167,17.5 400.833,17.5 402.5,17.5C 402.5,23.8333 402.5,30.1667 402.5,36.5C 400.5,36.5 398.5,36.5 396.5,36.5C 396.5,33.5 396.5,30.5 396.5,27.5C 386.543,27.3185 376.876,27.9852 367.5,29.5C 369.312,44.4327 370.645,59.4327 371.5,74.5C 377.455,73.6365 383.455,73.3032 389.5,73.5C 388.554,68.9489 390.387,66.6155 395,66.5C 395.499,71.8229 395.666,77.1563 395.5,82.5C 393.5,82.5 391.5,82.5 389.5,82.5C 389.5,81.5 389.5,80.5 389.5,79.5C 383.833,79.5 378.167,79.5 372.5,79.5C 373.117,95.4159 374.117,111.083 375.5,126.5C 384.521,126.599 393.521,126.266 402.5,125.5C 402.5,122.833 402.5,120.167 402.5,117.5C 404.262,117.643 405.929,117.309 407.5,116.5C 408.495,122.128 408.829,127.794 408.5,133.5C 389.92,134.473 371.587,135.473 353.5,136.5C 352.914,136.291 352.414,135.957 352,135.5C 351.503,132.854 351.336,130.187 351.5,127.5C 352.5,127.5 353.5,127.5 354.5,127.5C 353.242,95.0642 352.242,62.3975 351.5,29.5C 349.5,29.5 347.5,29.5 345.5,29.5C 345.318,27.4086 345.652,25.4086 346.5,23.5C 360.787,21.9899 375.12,21.1566 389.5,21C 392.792,20.9964 395.458,19.8297 397.5,17.5 Z"/></g>
<g><path style="opacity:0.989" fill="#fafafa" d="M -0.5,39.5 C -0.5,37.5 -0.5,35.5 -0.5,33.5C 15.3021,29.6433 31.3021,26.6433 47.5,24.5C 47.33,23.1779 47.6634,22.0113 48.5,21C 50.4357,20.187 52.4357,19.687 54.5,19.5C 55.1804,25.5545 56.1804,31.5545 57.5,37.5C 55.7244,39.4468 53.7244,39.7801 51.5,38.5C 50.8108,36.556 50.3108,34.556 50,32.5C 49.4806,31.4844 48.6473,30.8178 47.5,30.5C 39.2372,32.3531 30.9038,33.6864 22.5,34.5C 22.3359,37.1873 22.5026,39.854 23,42.5C 26.1505,54.7513 28.9839,67.0847 31.5,79.5C 36.9306,79.2719 42.2639,78.4385 47.5,77C 48.1029,75.1746 48.7696,73.3413 49.5,71.5C 51.0589,70.9264 52.5589,70.2598 54,69.5C 55.5463,74.7297 56.3796,80.0631 56.5,85.5C 54.5,85.5 52.5,85.5 50.5,85.5C 50.5,84.5 50.5,83.5 50.5,82.5C 44.8632,83.6062 39.1965,84.6062 33.5,85.5C 36.4463,100.228 39.7796,114.895 43.5,129.5C 44.7722,130.046 46.1055,130.379 47.5,130.5C 54.8033,128.953 62.1367,127.62 69.5,126.5C 69.25,123.786 69.0833,121.119 69,118.5C 70.6667,117.833 72.3333,117.167 74,116.5C 74.9365,121.894 76.1032,127.228 77.5,132.5C 59.001,137.028 40.3344,140.694 21.5,143.5C 21.683,141.064 21.0163,138.897 19.5,137C 22.2646,134.447 23.0979,131.281 22,127.5C 16.4848,97.7021 10.6515,68.0354 4.5,38.5C 2.92908,39.3094 1.26241,39.6427 -0.5,39.5 Z"/></g>
<g><path style="opacity:0.994" fill="#f8f8f9" d="M 94.5,25.5 C 95.7757,28.0303 95.7757,30.6969 94.5,33.5C 94.8333,34.5 95.5,35.1667 96.5,35.5C 117.524,26.1134 132.691,31.78 142,52.5C 147.965,72.498 140.798,84.3314 120.5,88C 116.11,88.7722 111.777,88.6055 107.5,87.5C 106.353,89.7649 106.186,92.0982 107,94.5C 108.891,104.18 110.891,113.847 113,123.5C 114.333,124.833 115.667,124.833 117,123.5C 117.667,125.167 117.667,126.833 117,128.5C 109.891,131.593 102.724,134.593 95.5,137.5C 94.6433,136.264 93.9766,134.931 93.5,133.5C 94.9373,131.979 95.604,130.145 95.5,128C 90.7954,98.729 85.6287,69.5623 80,40.5C 79.4818,37.9774 78.1485,35.9774 76,34.5C 75.51,33.2068 75.3433,31.8734 75.5,30.5C 82.0414,29.1983 88.3748,27.5317 94.5,25.5 Z M 131.5,64.5 C 130.514,66.4261 129.514,68.4261 128.5,70.5C 127.128,71.5116 125.795,72.5116 124.5,73.5C 122.214,73.595 120.214,74.2616 118.5,75.5C 117.833,75.5 117.167,75.5 116.5,75.5C 111.964,75.8498 107.631,75.1831 103.5,73.5C 103.011,72.0048 102.345,70.6715 101.5,69.5C 100.474,61.753 99.3076,54.0863 98,46.5C 104.488,42.0861 111.655,40.2528 119.5,41C 129.333,45.7096 133.333,53.5429 131.5,64.5 Z"/></g>
<g><path style="opacity:0.998" fill="#fafafa" d="M 175.5,25.5 C 176.496,25.4142 177.329,25.7476 178,26.5C 178.495,28.4727 178.662,30.4727 178.5,32.5C 176.5,32.5 174.5,32.5 172.5,32.5C 175.281,63.1865 178.281,93.8532 181.5,124.5C 184.656,124.529 186.322,126.196 186.5,129.5C 177.512,130.399 168.512,131.066 159.5,131.5C 159.5,129.833 159.5,128.167 159.5,126.5C 160.5,126.5 161.5,126.5 162.5,126.5C 160.71,95.4869 158.71,64.4869 156.5,33.5C 154.5,33.5 152.5,33.5 150.5,33.5C 150.5,31.5 150.5,29.5 150.5,27.5C 159.05,27.7098 167.384,27.0431 175.5,25.5 Z"/></g>
<g><path style="opacity:1" fill="#a1a2a9" d="M 131.5,64.5 C 131.969,67.3933 130.969,69.3933 128.5,70.5C 129.514,68.4261 130.514,66.4261 131.5,64.5 Z"/></g>
<g><path style="opacity:1" fill="#7a7a81" d="M 101.5,69.5 C 102.345,70.6715 103.011,72.0048 103.5,73.5C 101.824,72.8166 101.157,71.4832 101.5,69.5 Z"/></g>
<g><path style="opacity:0.957" fill="#7d7e85" d="M 124.5,73.5 C 122.898,75.0739 120.898,75.7406 118.5,75.5C 120.214,74.2616 122.214,73.595 124.5,73.5 Z"/></g>
<g><path style="opacity:1" fill="#a6a7ab" d="M 103.5,73.5 C 107.631,75.1831 111.964,75.8498 116.5,75.5C 113.36,76.6408 110.027,76.8075 106.5,76C 104.881,75.7645 103.881,74.9311 103.5,73.5 Z"/></g>
<g><path style="opacity:0.989" fill="#f9f9f9" d="M 251.5,138.5 C 256.099,138.2 260.599,138.533 265,139.5C 277.872,171.121 290.538,202.787 303,234.5C 304.113,235.711 305.28,235.711 306.5,234.5C 307.466,236.396 307.799,238.396 307.5,240.5C 299.83,240.778 292.164,241.111 284.5,241.5C 284.579,240.07 284.246,238.736 283.5,237.5C 284.5,236.667 285.5,235.833 286.5,235C 283.303,227.078 280.303,219.078 277.5,211C 268.899,211.359 260.232,211.859 251.5,212.5C 250.175,220.117 249.175,227.783 248.5,235.5C 249.5,235.5 250.5,235.5 251.5,235.5C 251.528,237.582 250.861,239.416 249.5,241C 241.558,241.292 233.725,242.125 226,243.5C 225.48,241.711 225.813,240.044 227,238.5C 228.676,237.939 230.009,236.939 231,235.5C 237.748,203.104 244.582,170.771 251.5,138.5 Z M 261.5,166.5 C 264.383,174.481 267.049,182.481 269.5,190.5C 269.427,192.027 270.094,193.027 271.5,193.5C 271.833,195.5 272.167,197.5 272.5,199.5C 272.932,200.71 273.599,201.71 274.5,202.5C 274.19,204.144 273.19,205.144 271.5,205.5C 265.364,205.359 259.531,205.692 254,206.5C 254.207,204.249 254.373,201.915 254.5,199.5C 256.574,189.248 258.24,178.915 259.5,168.5C 260.167,167.833 260.833,167.167 261.5,166.5 Z"/></g>
<g><path style="opacity:0.989" fill="#f9f9f9" d="M 184.5,261.5 C 185.035,264.238 184.035,266.072 181.5,267C 173.269,269.261 164.936,271.094 156.5,272.5C 156.051,270.023 156.717,268.023 158.5,266.5C 158.833,261.167 159.167,255.833 159.5,250.5C 157.99,218.874 156.99,187.207 156.5,155.5C 155.5,155.5 154.5,155.5 153.5,155.5C 153.5,153.5 153.5,151.5 153.5,149.5C 161.116,148.372 168.783,147.705 176.5,147.5C 176.507,151.148 175.174,154.148 172.5,156.5C 183.183,156.177 193.85,156.677 204.5,158C 220.891,168.299 227.391,183.132 224,202.5C 221.599,210.135 216.765,215.635 209.5,219C 202.119,220.446 194.786,220.946 187.5,220.5C 188.352,223.223 189.519,225.89 191,228.5C 199.167,240.667 207.333,252.833 215.5,265C 218.167,265.333 220.833,265.667 223.5,266C 222.773,267.399 222.273,268.899 222,270.5C 212.651,271.271 203.484,271.937 194.5,272.5C 193.359,270.579 193.192,268.579 194,266.5C 196.13,266.413 198.297,266.413 200.5,266.5C 201.614,265.277 201.781,263.944 201,262.5C 193.705,251.571 187.205,240.238 181.5,228.5C 180.5,228.5 179.5,228.5 178.5,228.5C 178.579,239.539 179.245,250.539 180.5,261.5C 181.833,261.5 183.167,261.5 184.5,261.5 Z M 187.5,166.5 C 199.189,164.982 207.023,169.649 211,180.5C 211.823,186.629 211.323,192.629 209.5,198.5C 208.094,198.973 207.427,199.973 207.5,201.5C 206.833,201.5 206.5,201.833 206.5,202.5C 200.195,205.197 193.529,206.197 186.5,205.5C 183.285,205.095 180.285,204.095 177.5,202.5C 177.024,198.007 176.358,193.673 175.5,189.5C 175.808,183.575 175.475,177.741 174.5,172C 176.132,170.18 178.132,169.014 180.5,168.5C 183.067,168.279 185.401,167.612 187.5,166.5 Z"/></g>
<g><path style="opacity:0.996" fill="#f9f9f9" d="M 131.5,150.5 C 133.5,150.5 135.5,150.5 137.5,150.5C 137.5,156.5 137.5,162.5 137.5,168.5C 135.533,168.739 133.699,168.406 132,167.5C 131.503,164.854 131.336,162.187 131.5,159.5C 122.874,160.411 114.208,160.745 105.5,160.5C 106.608,174.824 107.774,189.157 109,203.5C 109.333,203.833 109.667,204.167 110,204.5C 115.088,203.54 120.254,202.873 125.5,202.5C 125.293,199.255 126.793,197.255 130,196.5C 130.333,196.833 130.667,197.167 131,197.5C 131.499,202.155 131.666,206.821 131.5,211.5C 129.5,211.5 127.5,211.5 125.5,211.5C 125.5,210.5 125.5,209.5 125.5,208.5C 120.167,208.5 114.833,208.5 109.5,208.5C 109.912,223.583 111.245,238.583 113.5,253.5C 120.364,252.851 127.198,252.184 134,251.5C 135,252.833 136,252.833 137,251.5C 137.186,249.1 137.686,246.766 138.5,244.5C 140.071,243.691 141.738,243.357 143.5,243.5C 143.5,248.833 143.5,254.167 143.5,259.5C 126.041,259.937 108.374,260.604 90.5,261.5C 90.7394,259.533 90.4061,257.699 89.5,256C 90.0465,255.075 90.7132,254.242 91.5,253.5C 91.8333,248.333 92.1667,243.167 92.5,238C 91.8848,212.48 90.8848,186.98 89.5,161.5C 87.8333,161.5 86.1667,161.5 84.5,161.5C 83.7893,158.136 84.956,155.803 88,154.5C 88.3333,154.833 88.6667,155.167 89,155.5C 103.31,154.472 117.476,153.805 131.5,153.5C 131.5,152.5 131.5,151.5 131.5,150.5 Z"/></g>
<g><path style="opacity:0.994" fill="#f9f9f9" d="M 390.5,264.5 C 390.306,262.088 388.973,261.088 386.5,261.5C 386.5,260.5 386.5,259.5 386.5,258.5C 386.821,256.952 387.821,256.285 389.5,256.5C 392.612,223.5 395.612,190.5 398.5,157.5C 396.833,157.5 395.167,157.5 393.5,157.5C 393.71,152.806 396.21,150.806 401,151.5C 414.488,153.027 427.988,154.36 441.5,155.5C 444.642,153.881 447.975,153.215 451.5,153.5C 451.255,159.892 450.588,166.226 449.5,172.5C 447.533,172.739 445.699,172.406 444,171.5C 443.502,168.518 443.335,165.518 443.5,162.5C 434.5,161.44 425.5,160.44 416.5,159.5C 414.871,174.783 413.871,190.116 413.5,205.5C 418.567,205.622 423.567,206.289 428.5,207.5C 431.085,206.927 432.085,205.261 431.5,202.5C 433.5,202.167 435.5,201.833 437.5,201.5C 437.313,206.845 436.98,212.178 436.5,217.5C 434.194,217.007 431.861,216.674 429.5,216.5C 429.5,215.167 429.5,213.833 429.5,212.5C 423.935,211.52 418.435,211.52 413,212.5C 411.589,227.803 410.756,243.136 410.5,258.5C 418.878,258.877 427.212,259.544 435.5,260.5C 437.229,258.149 437.896,255.482 437.5,252.5C 439.5,252.5 441.5,252.5 443.5,252.5C 443.559,258.378 442.725,264.045 441,269.5C 424.185,268.084 407.352,266.418 390.5,264.5 Z"/></g>
<g><path style="opacity:0.985" fill="#fbfbfb" d="M 336.5,152.5 C 350.194,152.759 359.694,159.092 365,171.5C 366.113,172.711 367.28,172.711 368.5,171.5C 369.942,173.316 370.442,175.316 370,177.5C 362.12,180.389 354.454,183.723 347,187.5C 345.833,185.833 344.667,184.167 343.5,182.5C 344.914,181.376 346.414,180.376 348,179.5C 347.394,176.54 345.561,174.373 342.5,173C 329.194,171.32 321.194,176.987 318.5,190C 318.673,194.386 320.34,198.053 323.5,201C 333.291,204.892 343.291,208.226 353.5,211C 371.223,219.61 377.723,233.443 373,252.5C 361.801,270.341 346.301,275.508 326.5,268C 322.108,264.644 318.442,260.644 315.5,256C 314.216,255.316 313.049,255.483 312,256.5C 311.187,254.564 310.687,252.564 310.5,250.5C 318.442,248.576 325.942,245.576 333,241.5C 333.792,243.587 334.959,245.421 336.5,247C 330.895,248.052 330.229,250.385 334.5,254C 343.857,256.714 351.691,254.214 358,246.5C 361.411,237.1 358.578,230.6 349.5,227C 337.038,224.626 325.372,220.293 314.5,214C 300.987,199.627 298.987,183.793 308.5,166.5C 316.243,158.572 325.576,153.905 336.5,152.5 Z"/></g>
<g><path style="opacity:0.993" fill="#fafafa" d="M 490.5,166.5 C 488.448,167.053 488.115,168.053 489.5,169.5C 495.183,170.726 500.85,172.059 506.5,173.5C 507.661,177.795 507.828,182.129 507,186.5C 501.359,184.269 495.526,182.603 489.5,181.5C 488.808,182.025 488.308,182.692 488,183.5C 486.145,201.717 484.311,219.884 482.5,238C 482.323,243.057 482.657,248.223 483.5,253.5C 493.011,256.404 502.344,256.071 511.5,252.5C 516.606,255.067 521.606,257.901 526.5,261C 521.845,264.162 516.845,266.495 511.5,268C 502.484,268.599 493.484,268.432 484.5,267.5C 483.425,266.438 482.425,266.438 481.5,267.5C 482.325,268.386 483.325,268.719 484.5,268.5C 484.938,268.435 485.272,268.601 485.5,269C 484.594,271.221 483.594,273.388 482.5,275.5C 482.167,275.5 481.833,275.5 481.5,275.5C 472.985,273.913 464.318,272.413 455.5,271C 454.577,268.959 454.244,266.792 454.5,264.5C 456.5,264.5 458.5,264.5 460.5,264.5C 464.387,231.86 468.053,199.193 471.5,166.5C 470.5,166.5 469.5,166.5 468.5,166.5C 468.5,164.5 468.5,162.5 468.5,160.5C 476.187,160.46 483.854,160.793 491.5,161.5C 491.784,163.415 491.451,165.081 490.5,166.5 Z"/></g>
<g><path style="opacity:0.655" fill="#68696d" d="M 261.5,166.5 C 260.833,167.167 260.167,167.833 259.5,168.5C 259.215,166.712 259.548,165.045 260.5,163.5C 261.386,164.325 261.719,165.325 261.5,166.5 Z"/></g>
<g><path style="opacity:0.522" fill="#71727a" d="M 187.5,166.5 C 185.401,167.612 183.067,168.279 180.5,168.5C 180.611,167.883 180.944,167.383 181.5,167C 183.473,166.505 185.473,166.338 187.5,166.5 Z"/></g>
<g><path style="opacity:0.008" fill="#47484f" d="M 490.5,166.5 C 490.443,167.609 490.11,168.609 489.5,169.5C 488.115,168.053 488.448,167.053 490.5,166.5 Z"/></g>
<g><path style="opacity:1" fill="#9352b2" d="M 549.5,191.5 C 556.023,180.795 563.189,170.462 571,160.5C 574.528,161.984 578.194,162.984 582,163.5C 582.167,163.833 582.333,164.167 582.5,164.5C 571.653,173.747 560.653,182.747 549.5,191.5 Z"/></g>
<g><path style="opacity:1" fill="#95bae7" d="M 513.5,176.5 C 518.765,178.801 523.765,181.634 528.5,185C 525.323,187.891 521.989,190.224 518.5,192C 517.271,190.471 515.771,189.304 514,188.5C 513.501,184.514 513.334,180.514 513.5,176.5 Z"/></g>
<g><path style="opacity:0.994" fill="#4f8fd8" d="M 590.5,211.5 C 602.489,200.353 614.989,189.686 628,179.5C 631.397,182.782 634.897,185.948 638.5,189C 622.957,197.413 606.957,204.913 590.5,211.5 Z"/></g>
<g><path style="opacity:1" fill="#df83d3" d="M 558.5,196.5 C 568.281,187.561 578.281,178.727 588.5,170C 593.387,168.431 598.387,167.764 603.5,168C 588.61,177.733 573.61,187.233 558.5,196.5 Z"/></g>
<g><path style="opacity:0.212" fill="#cd9c9b" d="M 591.5,189.5 C 591.639,187.663 592.306,187.33 593.5,188.5C 593.043,189.298 592.376,189.631 591.5,189.5 Z"/></g>
<g><path style="opacity:0.957" fill="#848388" d="M 269.5,190.5 C 271.048,190.821 271.715,191.821 271.5,193.5C 270.094,193.027 269.427,192.027 269.5,190.5 Z"/></g>
<g><path style="opacity:0.196" fill="#9667b3" d="M 549.5,191.5 C 548.833,192.167 548.833,192.167 549.5,191.5 Z"/></g>
<g><path style="opacity:0.086" fill="#cf78be" d="M 558.5,196.5 C 557.833,197.167 557.833,197.167 558.5,196.5 Z"/></g>
<g><path style="opacity:0.522" fill="#5d5d65" d="M 175.5,189.5 C 176.358,193.673 177.024,198.007 177.5,202.5C 175.57,198.627 174.903,194.294 175.5,189.5 Z"/></g>
<g><path style="opacity:0.231" fill="#e18dd0" d="M 555.5,198.5 C 555.842,197.662 556.508,197.328 557.5,197.5C 557.158,198.338 556.492,198.672 555.5,198.5 Z"/></g>
<g><path style="opacity:0.165" fill="#b978b5" d="M 555.5,198.5 C 554.833,199.167 554.833,199.167 555.5,198.5 Z"/></g>
<g><path style="opacity:0.929" fill="#6b6d77" d="M 209.5,198.5 C 209.573,200.027 208.906,201.027 207.5,201.5C 207.427,199.973 208.094,198.973 209.5,198.5 Z"/></g>
<g><path style="opacity:1" fill="#7d7d88" d="M 272.5,199.5 C 274.048,199.821 274.715,200.821 274.5,202.5C 273.599,201.71 272.932,200.71 272.5,199.5 Z"/></g>
<g><path style="opacity:1" fill="#eecfc7" d="M 532.5,191.5 C 535.913,192.946 537.913,195.613 538.5,199.5C 535.723,203.479 532.557,207.146 529,210.5C 528.705,206.244 527.538,202.244 525.5,198.5C 528.209,196.458 530.542,194.124 532.5,191.5 Z"/></g>
<g><path style="opacity:1" fill="#8d8d94" d="M 206.5,202.5 C 205.547,204.61 203.881,205.777 201.5,206C 196.316,206.816 191.316,206.65 186.5,205.5C 193.529,206.197 200.195,205.197 206.5,202.5 Z"/></g>
<g><path style="opacity:1" fill="#9d9da6" d="M 254.5,199.5 C 254.373,201.915 254.207,204.249 254,206.5C 259.531,205.692 265.364,205.359 271.5,205.5C 265.383,206.879 259.05,207.546 252.5,207.5C 252.111,204.447 252.777,201.78 254.5,199.5 Z"/></g>
<g><path style="opacity:1" fill="#e59b99" d="M 591.5,189.5 C 579.535,201.965 567.369,214.298 555,226.5C 554.333,220.833 554.333,215.167 555,209.5C 566.994,202.422 579.161,195.755 591.5,189.5 Z"/></g>
<g><path style="opacity:0.008" fill="#517bbf" d="M 588.5,212.5 C 588.842,211.662 589.508,211.328 590.5,211.5C 590.158,212.338 589.492,212.672 588.5,212.5 Z"/></g>
<g><path style="opacity:0.157" fill="#527ab3" d="M 588.5,212.5 C 587.833,213.167 587.833,213.167 588.5,212.5 Z"/></g>
<g><path style="opacity:1" fill="#e8b8ec" d="M 540.5,212.5 C 541.451,213.919 541.784,215.585 541.5,217.5C 537.529,219.32 533.529,220.82 529.5,222C 533.359,218.968 537.026,215.802 540.5,212.5 Z"/></g>
<g><path style="opacity:1" fill="#d381db" d="M 613.5,208.5 C 615.882,209.572 618.216,210.738 620.5,212C 612.894,214.819 605.227,217.486 597.5,220C 593.167,220.667 588.833,220.667 584.5,220C 594.385,216.433 604.052,212.6 613.5,208.5 Z"/></g>
<g><path style="opacity:1" fill="#dd999a" d="M 613.5,220.5 C 614.873,220.343 616.207,220.51 617.5,221C 615.787,222.378 614.453,224.045 613.5,226C 610.833,226.667 608.167,226.667 605.5,226C 606.167,225 606.833,224 607.5,223C 609.723,222.434 611.723,221.6 613.5,220.5 Z"/></g>
<g><path style="opacity:0.067" fill="#816877" d="M 553.5,227.5 C 554.833,228.167 554.833,228.167 553.5,227.5 Z"/></g>
<g><path style="opacity:1" fill="#9251b1" d="M 578.5,230.5 C 584.154,231.055 589.82,231.555 595.5,232C 592.831,236.682 590.164,241.349 587.5,246C 584.167,246.667 580.833,246.667 577.5,246C 569.779,245.107 562.112,243.941 554.5,242.5C 562.778,238.847 570.778,234.847 578.5,230.5 Z"/></g>
<g><path style="opacity:1" fill="#508dd4" d="M 602.5,231.5 C 604.604,231.201 606.604,231.534 608.5,232.5C 605.253,236.659 602.253,240.992 599.5,245.5C 597.833,246.833 596.167,246.833 594.5,245.5C 597.594,241.074 600.261,236.407 602.5,231.5 Z"/></g>
<g><path style="opacity:1" fill="#efcfc7" d="M 537.5,231.5 C 538.873,231.343 540.207,231.51 541.5,232C 539.871,238.719 537.537,245.219 534.5,251.5C 533.277,252.614 531.944,252.781 530.5,252C 526.833,250.333 523.167,248.667 519.5,247C 522.586,242.917 525.252,238.583 527.5,234C 530.952,233.115 534.286,232.282 537.5,231.5 Z"/></g>
<g><path style="opacity:0.157" fill="#cea7b6" d="M 386.5,258.5 C 386.5,259.5 386.5,260.5 386.5,261.5C 388.973,261.088 390.306,262.088 390.5,264.5C 388.833,264.5 387.167,264.5 385.5,264.5C 385.205,262.265 385.539,260.265 386.5,258.5 Z"/></g>
<g><path style="opacity:0.02" fill="#8c8f9c" d="M 184.5,260.5 C 185.833,261.167 185.833,261.167 184.5,260.5 Z"/></g>
<g><path style="opacity:1" fill="#7d7c80" d="M 484.5,267.5 C 484.5,267.833 484.5,268.167 484.5,268.5C 483.325,268.719 482.325,268.386 481.5,267.5C 482.425,266.438 483.425,266.438 484.5,267.5 Z"/></g>
</svg>
